<?xml version="1.0" encoding="UTF-8"?>
<svg xmlns="http://www.w3.org/2000/svg" xmlns:xlink="http://www.w3.org/1999/xlink" width="100px" height="100px" viewBox="0 0 100 100" version="1.1">
<g id="surface1">
<path style=" stroke:none;fill-rule:nonzero;fill:rgb(100%,0%,0%);fill-opacity:1;" d="M 16.015625 82.78125 C 16.015625 82.78125 15.398438 80.289062 14.316406 78.941406 C 13.234375 77.589844 4.882812 67.1875 3.648438 65.648438 C 2.417969 64.113281 0 61.121094 0 56.761719 C 0 52.398438 2.949219 49.285156 6.515625 47.496094 C 10.082031 45.710938 68.082031 16.386719 72.382812 14.144531 C 76.683594 11.898438 82.867188 8.453125 85.667969 6.792969 C 88.464844 5.128906 96.398438 0.453125 96.664062 0.273438 C 96.925781 0.0976562 97.066406 0 97.191406 0 C 97.316406 0 97.433594 0.136719 97.433594 0.3125 C 97.433594 0.488281 97.339844 0.730469 97.3125 0.851562 C 97.285156 0.972656 94.882812 9.863281 92.984375 12.898438 C 91.082031 15.929688 90.148438 17.21875 81.050781 21.203125 C 71.949219 25.191406 11.183594 51.777344 9.648438 52.523438 C 8.117188 53.269531 4.648438 54.601562 4.648438 57.796875 C 4.648438 60.375 6.714844 62.367188 7.316406 63.03125 C 7.917969 63.695312 24.25 82.78125 24.25 82.78125 Z M 16.015625 82.78125 "/>
<path style=" stroke:none;fill-rule:nonzero;fill:rgb(100%,0%,0%);fill-opacity:1;" d="M 8.851562 62.148438 C 8.851562 62.148438 7.367188 60.4375 7.167969 60.1875 C 6.964844 59.9375 6.535156 59.003906 6.535156 58.339844 C 6.535156 57.675781 6.632812 56.074219 8.882812 55.203125 C 11.132812 54.332031 63.648438 32.792969 66.515625 31.671875 C 69.382812 30.550781 86.3125 23.550781 89.324219 21.871094 C 89.960938 21.527344 90.074219 21.445312 90.175781 21.445312 C 90.273438 21.445312 90.402344 21.519531 90.402344 21.714844 C 90.402344 21.90625 90.332031 22.050781 90.277344 22.160156 C 90.226562 22.269531 87.324219 29.6875 85.625 32.023438 C 83.925781 34.363281 82.398438 36.011719 79.300781 36.976562 C 76.199219 37.945312 27.875 54.144531 27.5625 54.253906 C 27.25 54.363281 26.886719 54.71875 26.886719 55.203125 C 26.886719 55.996094 27.414062 56.058594 27.414062 56.058594 Z M 8.851562 62.148438 "/>
<path style=" stroke:none;fill-rule:nonzero;fill:rgb(100%,0%,0%);fill-opacity:1;" d="M 9.925781 63.332031 L 14.199219 68.285156 L 36.375 63.085938 C 36.375 63.085938 35.800781 62.632812 35.800781 62.109375 C 35.800781 61.589844 36.136719 61.246094 36.542969 61.144531 C 36.949219 61.042969 69.101562 53.269531 71.101562 52.835938 C 73.101562 52.398438 75.734375 51.671875 77.882812 48.433594 C 80.035156 45.191406 82.117188 40.863281 82.1875 40.730469 C 82.257812 40.601562 82.28125 40.523438 82.28125 40.445312 C 82.28125 40.367188 82.242188 40.171875 82.082031 40.171875 C 81.917969 40.171875 81.832031 40.21875 81.667969 40.296875 C 81.507812 40.375 9.925781 63.332031 9.925781 63.332031 Z M 9.925781 63.332031 "/>
<path style=" stroke:none;fill-rule:nonzero;fill:rgb(100%,0%,0%);fill-opacity:1;" d="M 72.800781 56.042969 C 72.710938 56.070312 15.214844 69.492188 15.214844 69.492188 L 20.199219 75.234375 L 46.792969 71.058594 C 46.792969 71.058594 46.292969 70.832031 46.292969 70.1875 C 46.292969 69.542969 46.785156 69.304688 47.066406 69.242188 C 47.351562 69.179688 60.75 66.730469 62.324219 66.4375 C 63.898438 66.148438 66.492188 65.472656 68.675781 62.605469 C 70.859375 59.742188 73.007812 56.5625 73.09375 56.4375 C 73.175781 56.3125 73.1875 56.234375 73.1875 56.171875 C 73.1875 56.109375 73.125 55.980469 73 55.980469 C 72.964844 55.980469 72.890625 56.019531 72.800781 56.042969 Z M 72.800781 56.042969 "/>
<path style=" stroke:none;fill-rule:nonzero;fill:rgb(100%,0%,0%);fill-opacity:1;" d="M 21.382812 76.574219 L 26.714844 82.804688 L 61.917969 82.804688 L 48.75 72.585938 Z M 21.382812 76.574219 "/>
<path style=" stroke:none;fill-rule:nonzero;fill:rgb(100%,0%,0%);fill-opacity:1;" d="M 19.5625 87.539062 C 19.710938 87.519531 20.976562 87.289062 20.976562 87.289062 L 20.976562 85.441406 L 11.984375 85.441406 L 11.984375 87.289062 C 11.984375 87.289062 13.25 87.519531 13.398438 87.539062 C 13.550781 87.558594 14.214844 87.746094 14.214844 88.679688 L 14.214844 91.027344 L 7.277344 91.027344 L 7.277344 88.679688 C 7.277344 87.746094 7.945312 87.558594 8.09375 87.539062 C 8.246094 87.519531 9.511719 87.289062 9.511719 87.289062 L 9.511719 85.441406 L 0.515625 85.441406 L 0.515625 87.289062 C 0.515625 87.289062 1.785156 87.519531 1.933594 87.539062 C 2.082031 87.558594 2.75 87.746094 2.75 88.679688 L 2.75 96.234375 C 2.75 97.171875 2.082031 97.359375 1.933594 97.378906 C 1.785156 97.398438 0.515625 97.574219 0.515625 97.574219 L 0.515625 99.421875 L 9.511719 99.421875 L 9.511719 97.574219 C 9.511719 97.574219 8.246094 97.398438 8.09375 97.378906 C 7.945312 97.359375 7.277344 97.171875 7.277344 96.234375 L 7.277344 93.875 L 14.214844 93.875 L 14.214844 96.234375 C 14.214844 97.171875 13.550781 97.359375 13.398438 97.378906 C 13.25 97.398438 11.984375 97.574219 11.984375 97.574219 L 11.984375 99.421875 L 20.976562 99.421875 L 20.976562 97.574219 C 20.976562 97.574219 19.710938 97.398438 19.5625 97.378906 C 19.410156 97.359375 18.746094 97.171875 18.746094 96.234375 L 18.746094 88.679688 C 18.746094 87.746094 19.410156 87.558594 19.5625 87.539062 Z M 19.5625 87.539062 "/>
<path style=" stroke:none;fill-rule:nonzero;fill:rgb(100%,0%,0%);fill-opacity:1;" d="M 30.632812 84.984375 C 24.832031 84.984375 21.449219 87.609375 21.449219 92.46875 C 21.449219 97.332031 24.832031 99.953125 30.632812 99.953125 C 36.433594 99.953125 39.816406 97.332031 39.816406 92.46875 C 39.816406 87.609375 36.433594 84.984375 30.632812 84.984375 Z M 30.632812 97.371094 C 29.5 97.371094 26.648438 97.410156 26.648438 92.46875 C 26.648438 87.527344 29.5 87.566406 30.632812 87.566406 C 31.765625 87.566406 34.617188 87.527344 34.617188 92.46875 C 34.617188 97.410156 31.765625 97.371094 30.632812 97.371094 Z M 30.632812 97.371094 "/>
<path style=" stroke:none;fill-rule:nonzero;fill:rgb(100%,0%,0%);fill-opacity:1;" d="M 52.957031 87.320312 L 52.957031 85.421875 L 60.183594 85.421875 L 60.183594 87.289062 C 60.183594 87.289062 58.925781 87.445312 58.679688 87.484375 C 58.4375 87.523438 57.898438 87.828125 57.898438 88.683594 C 57.898438 89.539062 57.898438 98.894531 57.898438 99.4375 C 57.898438 99.4375 52.582031 99.4375 52.316406 99.4375 C 52.050781 99.4375 51.664062 99.347656 51.4375 99.003906 C 51.210938 98.660156 45.324219 89.066406 45.324219 89.066406 C 45.324219 89.921875 45.324219 95.808594 45.324219 96.355469 C 45.324219 96.898438 45.757812 97.265625 46.074219 97.320312 C 46.394531 97.375 47.601562 97.566406 47.601562 97.566406 L 47.601562 99.4375 L 47.601562 97.566406 L 47.601562 99.4375 L 40.367188 99.4375 L 40.367188 97.570312 C 40.367188 97.570312 41.625 97.414062 41.867188 97.375 C 42.113281 97.335938 42.648438 97.03125 42.648438 96.175781 C 42.648438 95.320312 42.648438 89.066406 42.648438 88.519531 C 42.648438 87.976562 42.21875 87.609375 41.898438 87.554688 C 41.582031 87.5 40.375 87.335938 40.375 87.335938 L 40.375 85.421875 C 40.375 85.421875 47.964844 85.421875 48.234375 85.421875 C 48.5 85.421875 48.886719 85.515625 49.113281 85.855469 C 49.335938 86.199219 55.226562 95.792969 55.226562 95.792969 C 55.226562 94.9375 55.226562 89.050781 55.226562 88.503906 C 55.226562 87.960938 54.792969 87.59375 54.476562 87.539062 C 54.15625 87.484375 52.957031 87.320312 52.957031 87.320312 L 52.957031 85.421875 "/>
<path style=" stroke:none;fill-rule:nonzero;fill:rgb(100%,0%,0%);fill-opacity:1;" d="M 72.582031 85.421875 C 70.402344 85.421875 60.941406 85.421875 60.941406 85.421875 L 60.941406 87.335938 C 60.941406 87.335938 62.148438 87.5 62.464844 87.554688 C 62.785156 87.609375 63.214844 87.976562 63.214844 88.519531 C 63.214844 89.066406 63.214844 95.320312 63.214844 96.175781 C 63.214844 97.03125 62.679688 97.335938 62.433594 97.375 C 62.191406 97.414062 60.933594 97.570312 60.933594 97.570312 L 60.933594 99.4375 L 72.582031 99.4375 C 76.355469 99.4375 79.539062 97.257812 79.539062 92.367188 C 79.539062 87.476562 75.949219 85.421875 72.582031 85.421875 Z M 71.449219 96.78125 L 67.582031 96.78125 L 67.582031 88.121094 C 67.582031 88.121094 70.035156 88.121094 71.464844 88.121094 C 72.898438 88.121094 74.332031 88.722656 74.332031 92.378906 C 74.332031 96.035156 73.199219 96.78125 71.449219 96.78125 Z M 71.449219 96.78125 "/>
<path style=" stroke:none;fill-rule:nonzero;fill:rgb(100%,0%,0%);fill-opacity:1;" d="M 98.398438 97.359375 C 97.820312 97.28125 97.519531 96.589844 97.445312 96.449219 C 97.367188 96.308594 92.132812 86.347656 91.925781 85.972656 C 91.71875 85.601562 91.304688 85.445312 91.09375 85.445312 C 90.882812 85.445312 82.398438 85.445312 82.398438 85.445312 L 82.398438 87.34375 C 82.398438 87.34375 84.242188 87.570312 84.476562 87.601562 C 84.707031 87.632812 84.945312 88.160156 84.945312 88.339844 C 84.945312 88.519531 84.863281 88.691406 84.8125 88.800781 C 84.761719 88.910156 81.070312 96.425781 80.875 96.800781 C 80.679688 97.171875 80.355469 97.34375 80.117188 97.367188 C 79.882812 97.390625 78.648438 97.527344 78.648438 97.527344 L 78.648438 99.4375 L 85.816406 99.4375 L 85.816406 97.589844 L 84.367188 97.363281 C 84.042969 97.289062 83.949219 96.832031 83.949219 96.71875 C 83.949219 96.605469 84 96.429688 84.089844 96.25 C 84.113281 96.210938 84.320312 95.789062 84.632812 95.160156 L 91.550781 95.160156 C 91.882812 95.789062 92.105469 96.210938 92.128906 96.25 C 92.21875 96.429688 92.269531 96.605469 92.269531 96.71875 C 92.269531 96.832031 92.175781 97.289062 91.851562 97.363281 L 90.199219 97.527344 L 90.199219 99.4375 L 99.917969 99.4375 L 99.917969 97.589844 C 99.917969 97.589844 98.980469 97.4375 98.398438 97.359375 Z M 85.847656 92.710938 C 86.875 90.632812 87.976562 88.410156 87.976562 88.410156 C 87.976562 88.410156 89.152344 90.632812 90.253906 92.710938 Z M 85.847656 92.710938 "/>
</g>
</svg>
