<?xml version="1.0" encoding="UTF-8"?>
<svg xmlns="http://www.w3.org/2000/svg" xmlns:xlink="http://www.w3.org/1999/xlink" width="100px" height="100px" viewBox="0 0 100 100" version="1.1">
<g id="surface1">
<path style=" stroke:none;fill-rule:nonzero;fill:rgb(0%,0%,0%);fill-opacity:1;" d="M 0.0078125 43.011719 L 2.46875 43.011719 L 2.46875 56.796875 L 0.0078125 56.796875 Z M 11.839844 43.011719 L 14.476562 43.011719 L 14.476562 56.796875 L 11.839844 56.796875 Z M 20.0625 43.011719 L 22.699219 43.011719 L 22.699219 56.796875 L 20.0625 56.796875 Z M 20.0625 43.011719 "/>
<path style=" stroke:none;fill-rule:nonzero;fill:rgb(0%,0%,0%);fill-opacity:1;" d="M 3.378906 43.011719 L 0.917969 43.011719 L 0.917969 44.589844 L 11.109375 56.796875 L 13.480469 56.796875 L 13.480469 55.300781 Z M 85.523438 43.011719 L 87.984375 43.011719 L 87.984375 56.796875 L 85.523438 56.796875 Z M 82.160156 56.796875 L 74.871094 43.011719 L 72.75 43.011719 L 72.75 44.714844 L 79.03125 56.796875 Z M 82.160156 56.796875 "/>
<path style=" stroke:none;fill-rule:nonzero;fill:rgb(0%,0%,0%);fill-opacity:1;" d="M 64.824219 56.796875 L 72.113281 43.011719 L 74.238281 43.011719 L 74.289062 44.714844 L 68.007812 56.796875 Z M 97.355469 43.011719 L 99.992188 43.011719 L 99.992188 56.796875 L 97.355469 56.796875 Z M 97.355469 43.011719 "/>
<path style=" stroke:none;fill-rule:nonzero;fill:rgb(0%,0%,0%);fill-opacity:1;" d="M 88.890625 43.011719 L 86.429688 43.011719 L 86.429688 44.589844 L 96.621094 56.796875 L 98.996094 56.796875 L 98.996094 55.300781 Z M 68.398438 51.890625 L 78.625 51.890625 L 78.625 54.386719 L 68.398438 54.386719 Z M 38.746094 53.945312 L 28.257812 53.945312 L 28.257812 56.78125 L 38.945312 56.78125 C 39.550781 56.773438 40.445312 56.738281 41.289062 56.027344 C 41.703125 55.675781 42.046875 55.15625 42.257812 54.546875 C 42.46875 53.9375 42.5625 53.25 42.5625 52.460938 C 42.566406 51.40625 42.238281 50.371094 41.589844 49.597656 C 40.949219 48.820312 39.984375 48.359375 38.945312 48.367188 L 31.507812 48.367188 C 30.96875 48.355469 30.800781 48.210938 30.667969 48.058594 C 30.539062 47.902344 30.421875 47.597656 30.421875 47.113281 C 30.421875 46.640625 30.542969 46.335938 30.675781 46.171875 C 30.816406 46.011719 30.996094 45.867188 31.507812 45.855469 L 41.753906 45.855469 L 41.753906 43.015625 L 31.371094 43.015625 C 30.300781 43.003906 29.300781 43.460938 28.660156 44.269531 C 28.015625 45.070312 27.75 46.105469 27.753906 47.113281 C 27.75 48.105469 28 49.136719 28.644531 49.949219 C 29.285156 50.765625 30.289062 51.21875 31.371094 51.207031 L 38.75 51.207031 C 39.167969 51.214844 39.378906 51.351562 39.546875 51.542969 C 39.710938 51.738281 39.832031 52.039062 39.832031 52.460938 L 39.832031 52.621094 C 39.832031 52.621094 39.917969 53.945312 38.746094 53.945312 Z M 58.0625 53.945312 L 47.570312 53.945312 L 47.570312 56.78125 L 58.261719 56.78125 C 58.863281 56.773438 59.757812 56.738281 60.605469 56.027344 C 61.015625 55.675781 61.363281 55.15625 61.570312 54.546875 C 61.785156 53.9375 61.878906 53.25 61.878906 52.460938 C 61.882812 51.40625 61.554688 50.371094 60.90625 49.597656 C 60.265625 48.820312 59.296875 48.359375 58.261719 48.367188 L 50.820312 48.367188 C 50.285156 48.355469 50.117188 48.210938 49.984375 48.058594 C 49.855469 47.902344 49.738281 47.597656 49.734375 47.113281 C 49.738281 46.640625 49.855469 46.335938 49.992188 46.171875 C 50.132812 46.011719 50.308594 45.867188 50.824219 45.855469 L 61.070312 45.855469 L 61.070312 43.015625 L 50.6875 43.015625 C 49.617188 43.003906 48.617188 43.460938 47.976562 44.269531 C 47.332031 45.070312 47.066406 46.105469 47.066406 47.113281 C 47.066406 48.105469 47.316406 49.136719 47.960938 49.949219 C 48.597656 50.765625 49.605469 51.21875 50.6875 51.207031 L 58.0625 51.207031 C 58.484375 51.214844 58.695312 51.351562 58.863281 51.542969 C 59.027344 51.738281 59.148438 52.039062 59.148438 52.460938 L 59.148438 52.621094 C 59.148438 52.621094 59.234375 53.945312 58.0625 53.945312 Z M 49.726562 0 C 32.871094 0.15625 18.390625 12.195312 11.894531 29.433594 C 11.894531 29.433594 10.660156 32.707031 8.179688 33.019531 L 2.9375 33.597656 L 2.9375 35.171875 L 14.28125 35.171875 C 19.289062 17.484375 33.242188 4.824219 49.90625 4.824219 L 50.152344 4.824219 C 66.820312 4.824219 80.769531 17.484375 85.777344 35.171875 L 97.125 35.171875 L 97.125 33.597656 L 91.878906 33.019531 C 89.398438 32.707031 88.167969 29.433594 88.167969 29.433594 C 81.667969 12.1875 67.175781 0.144531 50.308594 0 Z M 50.335938 100 C 67.191406 99.84375 81.671875 87.804688 88.167969 70.566406 C 88.167969 70.566406 89.398438 67.292969 91.878906 66.980469 L 97.125 66.402344 L 97.125 64.828125 L 85.777344 64.828125 C 80.769531 82.515625 66.820312 95.175781 50.152344 95.175781 L 49.90625 95.175781 C 33.242188 95.175781 19.289062 82.515625 14.28125 64.828125 L 2.9375 64.828125 L 2.9375 66.402344 L 8.179688 66.980469 C 10.660156 67.292969 11.894531 70.566406 11.894531 70.566406 C 18.394531 87.8125 32.882812 99.855469 49.75 100 Z M 50.335938 100 "/>
</g>
</svg>
